<mxfile host="app.diagrams.net" modified="2024-06-04T10:21:52.972Z" agent="Mozilla/5.0 (Windows NT 10.0; Win64; x64) AppleWebKit/537.36 (KHTML, like Gecko) Chrome/125.0.0.0 Safari/537.36 Edg/125.0.0.0" etag="bq3fcUg_wk_syPlzg6tA" version="24.4.6" type="github">
  <diagram id="Y0g9D1trI4oX7ThR_WNg" name="第 1 页">
    <mxGraphModel dx="1213" dy="746" grid="1" gridSize="10" guides="1" tooltips="1" connect="1" arrows="1" fold="1" page="1" pageScale="1" pageWidth="827" pageHeight="1169" math="0" shadow="0">
      <root>
        <mxCell id="0" />
        <mxCell id="1" parent="0" />
        <mxCell id="WYvio2zzwExaLBoRtyoF-3" value="CallInfo of print" style="text;strokeColor=none;align=center;fillColor=none;html=1;verticalAlign=middle;whiteSpace=wrap;rounded=0;" vertex="1" parent="1">
          <mxGeometry x="125" y="160" width="90" height="30" as="geometry" />
        </mxCell>
        <mxCell id="WYvio2zzwExaLBoRtyoF-4" value="CallInfo of f1" style="text;strokeColor=none;align=center;fillColor=none;html=1;verticalAlign=middle;whiteSpace=wrap;rounded=0;" vertex="1" parent="1">
          <mxGeometry x="125" y="320" width="90" height="30" as="geometry" />
        </mxCell>
        <mxCell id="WYvio2zzwExaLBoRtyoF-6" value="" style="rounded=0;whiteSpace=wrap;html=1;fillColor=#fff2cc;strokeColor=#d6b656;" vertex="1" parent="1">
          <mxGeometry x="130" y="200" width="80" height="100" as="geometry" />
        </mxCell>
        <mxCell id="WYvio2zzwExaLBoRtyoF-7" value="" style="rounded=0;whiteSpace=wrap;html=1;fillColor=#d5e8d4;strokeColor=#82b366;" vertex="1" parent="1">
          <mxGeometry x="130" y="350" width="80" height="100" as="geometry" />
        </mxCell>
        <mxCell id="WYvio2zzwExaLBoRtyoF-9" value="栈数组" style="text;strokeColor=none;align=center;fillColor=none;html=1;verticalAlign=middle;whiteSpace=wrap;rounded=0;" vertex="1" parent="1">
          <mxGeometry x="268" y="76" width="90" height="30" as="geometry" />
        </mxCell>
        <mxCell id="WYvio2zzwExaLBoRtyoF-10" value="top" style="rounded=0;whiteSpace=wrap;html=1;fillColor=#d5e8d4;strokeColor=#82b366;" vertex="1" parent="1">
          <mxGeometry x="150" y="360" width="40" height="20" as="geometry" />
        </mxCell>
        <mxCell id="WYvio2zzwExaLBoRtyoF-11" value="base" style="rounded=0;whiteSpace=wrap;html=1;fillColor=#d5e8d4;strokeColor=#82b366;" vertex="1" parent="1">
          <mxGeometry x="150" y="390" width="40" height="20" as="geometry" />
        </mxCell>
        <mxCell id="WYvio2zzwExaLBoRtyoF-12" value="func" style="rounded=0;whiteSpace=wrap;html=1;fillColor=#d5e8d4;strokeColor=#82b366;" vertex="1" parent="1">
          <mxGeometry x="150" y="410" width="40" height="20" as="geometry" />
        </mxCell>
        <mxCell id="WYvio2zzwExaLBoRtyoF-14" value="top" style="rounded=0;whiteSpace=wrap;html=1;fillColor=#fff2cc;strokeColor=#d6b656;" vertex="1" parent="1">
          <mxGeometry x="150" y="210" width="40" height="20" as="geometry" />
        </mxCell>
        <mxCell id="WYvio2zzwExaLBoRtyoF-15" value="base" style="rounded=0;whiteSpace=wrap;html=1;fillColor=#fff2cc;strokeColor=#d6b656;" vertex="1" parent="1">
          <mxGeometry x="150" y="240" width="40" height="20" as="geometry" />
        </mxCell>
        <mxCell id="WYvio2zzwExaLBoRtyoF-16" value="func" style="rounded=0;whiteSpace=wrap;html=1;fillColor=#fff2cc;strokeColor=#d6b656;" vertex="1" parent="1">
          <mxGeometry x="150" y="260" width="40" height="20" as="geometry" />
        </mxCell>
        <mxCell id="WYvio2zzwExaLBoRtyoF-18" value="f1" style="rounded=0;whiteSpace=wrap;html=1;" vertex="1" parent="1">
          <mxGeometry x="270" y="440" width="90" height="30" as="geometry" />
        </mxCell>
        <mxCell id="WYvio2zzwExaLBoRtyoF-19" value="x" style="rounded=0;whiteSpace=wrap;html=1;fillColor=#d5e8d4;strokeColor=#82b366;" vertex="1" parent="1">
          <mxGeometry x="270" y="410" width="90" height="30" as="geometry" />
        </mxCell>
        <mxCell id="WYvio2zzwExaLBoRtyoF-20" value="y" style="rounded=0;whiteSpace=wrap;html=1;fillColor=#d5e8d4;strokeColor=#82b366;" vertex="1" parent="1">
          <mxGeometry x="270" y="380" width="90" height="30" as="geometry" />
        </mxCell>
        <mxCell id="WYvio2zzwExaLBoRtyoF-21" value="z" style="rounded=0;whiteSpace=wrap;html=1;fillColor=#d5e8d4;strokeColor=#82b366;" vertex="1" parent="1">
          <mxGeometry x="270" y="350" width="90" height="30" as="geometry" />
        </mxCell>
        <mxCell id="WYvio2zzwExaLBoRtyoF-22" value="print" style="rounded=0;whiteSpace=wrap;html=1;fillColor=#d5e8d4;strokeColor=#82b366;" vertex="1" parent="1">
          <mxGeometry x="270" y="320" width="90" height="30" as="geometry" />
        </mxCell>
        <mxCell id="WYvio2zzwExaLBoRtyoF-23" value="x" style="rounded=0;whiteSpace=wrap;html=1;fillColor=#d5e8d4;strokeColor=#82b366;" vertex="1" parent="1">
          <mxGeometry x="270" y="290" width="90" height="30" as="geometry" />
        </mxCell>
        <mxCell id="WYvio2zzwExaLBoRtyoF-24" value="y" style="rounded=0;whiteSpace=wrap;html=1;fillColor=#d5e8d4;strokeColor=#82b366;" vertex="1" parent="1">
          <mxGeometry x="270" y="260" width="90" height="30" as="geometry" />
        </mxCell>
        <mxCell id="WYvio2zzwExaLBoRtyoF-25" value="z" style="rounded=0;whiteSpace=wrap;html=1;fillColor=#d5e8d4;strokeColor=#82b366;" vertex="1" parent="1">
          <mxGeometry x="270" y="230" width="90" height="30" as="geometry" />
        </mxCell>
        <mxCell id="WYvio2zzwExaLBoRtyoF-26" value="..." style="rounded=0;whiteSpace=wrap;html=1;" vertex="1" parent="1">
          <mxGeometry x="270" y="200" width="90" height="30" as="geometry" />
        </mxCell>
        <mxCell id="WYvio2zzwExaLBoRtyoF-27" value="..." style="rounded=0;whiteSpace=wrap;html=1;" vertex="1" parent="1">
          <mxGeometry x="270" y="170" width="90" height="30" as="geometry" />
        </mxCell>
        <mxCell id="WYvio2zzwExaLBoRtyoF-28" value="..." style="rounded=0;whiteSpace=wrap;html=1;" vertex="1" parent="1">
          <mxGeometry x="270" y="140" width="90" height="30" as="geometry" />
        </mxCell>
        <mxCell id="WYvio2zzwExaLBoRtyoF-29" value="" style="rounded=0;whiteSpace=wrap;html=1;" vertex="1" parent="1">
          <mxGeometry x="270" y="110" width="90" height="30" as="geometry" />
        </mxCell>
        <mxCell id="WYvio2zzwExaLBoRtyoF-31" value="R[0]" style="rounded=0;whiteSpace=wrap;html=1;fillColor=#d5e8d4;strokeColor=#82b366;" vertex="1" parent="1">
          <mxGeometry x="360" y="410" width="50" height="30" as="geometry" />
        </mxCell>
        <mxCell id="WYvio2zzwExaLBoRtyoF-32" value="R[1]" style="rounded=0;whiteSpace=wrap;html=1;fillColor=#d5e8d4;strokeColor=#82b366;" vertex="1" parent="1">
          <mxGeometry x="360" y="380" width="50" height="30" as="geometry" />
        </mxCell>
        <mxCell id="WYvio2zzwExaLBoRtyoF-33" value="R[2]" style="rounded=0;whiteSpace=wrap;html=1;fillColor=#d5e8d4;strokeColor=#82b366;" vertex="1" parent="1">
          <mxGeometry x="360" y="350" width="50" height="30" as="geometry" />
        </mxCell>
        <mxCell id="WYvio2zzwExaLBoRtyoF-34" value="R[3]" style="rounded=0;whiteSpace=wrap;html=1;fillColor=#d5e8d4;strokeColor=#82b366;" vertex="1" parent="1">
          <mxGeometry x="360" y="320" width="50" height="30" as="geometry" />
        </mxCell>
        <mxCell id="WYvio2zzwExaLBoRtyoF-35" value="R[6]" style="rounded=0;whiteSpace=wrap;html=1;fillColor=#d5e8d4;strokeColor=#82b366;" vertex="1" parent="1">
          <mxGeometry x="360" y="230" width="50" height="30" as="geometry" />
        </mxCell>
        <mxCell id="WYvio2zzwExaLBoRtyoF-36" value="R[4]" style="rounded=0;whiteSpace=wrap;html=1;fillColor=#d5e8d4;strokeColor=#82b366;" vertex="1" parent="1">
          <mxGeometry x="360" y="290" width="50" height="30" as="geometry" />
        </mxCell>
        <mxCell id="WYvio2zzwExaLBoRtyoF-37" value="R[4]" style="rounded=0;whiteSpace=wrap;html=1;fillColor=#d5e8d4;strokeColor=#82b366;" vertex="1" parent="1">
          <mxGeometry x="360" y="260" width="50" height="30" as="geometry" />
        </mxCell>
        <mxCell id="WYvio2zzwExaLBoRtyoF-38" value="" style="endArrow=classic;html=1;rounded=0;exitX=1;exitY=0.5;exitDx=0;exitDy=0;entryX=0;entryY=0.5;entryDx=0;entryDy=0;dashed=1;" edge="1" parent="1" source="WYvio2zzwExaLBoRtyoF-10" target="WYvio2zzwExaLBoRtyoF-26">
          <mxGeometry width="50" height="50" relative="1" as="geometry">
            <mxPoint x="390" y="410" as="sourcePoint" />
            <mxPoint x="440" y="360" as="targetPoint" />
          </mxGeometry>
        </mxCell>
        <mxCell id="WYvio2zzwExaLBoRtyoF-40" value="" style="endArrow=classic;html=1;rounded=0;exitX=1;exitY=0.5;exitDx=0;exitDy=0;entryX=0;entryY=0.5;entryDx=0;entryDy=0;" edge="1" parent="1" source="WYvio2zzwExaLBoRtyoF-12" target="WYvio2zzwExaLBoRtyoF-18">
          <mxGeometry width="50" height="50" relative="1" as="geometry">
            <mxPoint x="390" y="410" as="sourcePoint" />
            <mxPoint x="440" y="360" as="targetPoint" />
          </mxGeometry>
        </mxCell>
        <mxCell id="WYvio2zzwExaLBoRtyoF-41" value="" style="endArrow=classic;html=1;rounded=0;exitX=1;exitY=0.5;exitDx=0;exitDy=0;entryX=0;entryY=0.5;entryDx=0;entryDy=0;" edge="1" parent="1" target="WYvio2zzwExaLBoRtyoF-19">
          <mxGeometry width="50" height="50" relative="1" as="geometry">
            <mxPoint x="190" y="402.5" as="sourcePoint" />
            <mxPoint x="270" y="437.5" as="targetPoint" />
          </mxGeometry>
        </mxCell>
        <mxCell id="WYvio2zzwExaLBoRtyoF-42" value="" style="endArrow=classic;html=1;rounded=0;exitX=1;exitY=0.5;exitDx=0;exitDy=0;entryX=0;entryY=0.5;entryDx=0;entryDy=0;" edge="1" parent="1" target="WYvio2zzwExaLBoRtyoF-22">
          <mxGeometry width="50" height="50" relative="1" as="geometry">
            <mxPoint x="190" y="267.5" as="sourcePoint" />
            <mxPoint x="270" y="290" as="targetPoint" />
          </mxGeometry>
        </mxCell>
        <mxCell id="WYvio2zzwExaLBoRtyoF-44" value="" style="endArrow=classic;html=1;rounded=0;exitX=1;exitY=0.5;exitDx=0;exitDy=0;entryX=0;entryY=0.5;entryDx=0;entryDy=0;" edge="1" parent="1" target="WYvio2zzwExaLBoRtyoF-23">
          <mxGeometry width="50" height="50" relative="1" as="geometry">
            <mxPoint x="190" y="252.5" as="sourcePoint" />
            <mxPoint x="270" y="320" as="targetPoint" />
          </mxGeometry>
        </mxCell>
        <mxCell id="WYvio2zzwExaLBoRtyoF-45" value="" style="endArrow=classic;html=1;rounded=0;entryX=0;entryY=0.5;entryDx=0;entryDy=0;dashed=1;" edge="1" parent="1" target="WYvio2zzwExaLBoRtyoF-28">
          <mxGeometry width="50" height="50" relative="1" as="geometry">
            <mxPoint x="190" y="220" as="sourcePoint" />
            <mxPoint x="270" y="70" as="targetPoint" />
          </mxGeometry>
        </mxCell>
        <mxCell id="WYvio2zzwExaLBoRtyoF-46" value="f1视角的寄存器" style="text;strokeColor=none;align=center;fillColor=none;html=1;verticalAlign=middle;whiteSpace=wrap;rounded=0;" vertex="1" parent="1">
          <mxGeometry x="335" y="530" width="100" height="30" as="geometry" />
        </mxCell>
        <mxCell id="WYvio2zzwExaLBoRtyoF-47" value="" style="endArrow=classic;html=1;rounded=0;exitX=0.5;exitY=0;exitDx=0;exitDy=0;entryX=0.5;entryY=1;entryDx=0;entryDy=0;" edge="1" parent="1" source="WYvio2zzwExaLBoRtyoF-46" target="WYvio2zzwExaLBoRtyoF-31">
          <mxGeometry width="50" height="50" relative="1" as="geometry">
            <mxPoint x="390" y="410" as="sourcePoint" />
            <mxPoint x="440" y="360" as="targetPoint" />
          </mxGeometry>
        </mxCell>
        <mxCell id="WYvio2zzwExaLBoRtyoF-50" value="R[0]" style="rounded=0;whiteSpace=wrap;html=1;fillColor=#fff2cc;strokeColor=#d6b656;" vertex="1" parent="1">
          <mxGeometry x="414" y="290" width="50" height="30" as="geometry" />
        </mxCell>
        <mxCell id="WYvio2zzwExaLBoRtyoF-53" value="R[1]" style="rounded=0;whiteSpace=wrap;html=1;fillColor=#fff2cc;strokeColor=#d6b656;" vertex="1" parent="1">
          <mxGeometry x="414" y="260" width="50" height="30" as="geometry" />
        </mxCell>
        <mxCell id="WYvio2zzwExaLBoRtyoF-54" value="R[2]" style="rounded=0;whiteSpace=wrap;html=1;fillColor=#fff2cc;strokeColor=#d6b656;" vertex="1" parent="1">
          <mxGeometry x="414" y="230" width="50" height="30" as="geometry" />
        </mxCell>
        <mxCell id="WYvio2zzwExaLBoRtyoF-55" value="print 视角的寄存器" style="text;strokeColor=none;align=center;fillColor=none;html=1;verticalAlign=middle;whiteSpace=wrap;rounded=0;" vertex="1" parent="1">
          <mxGeometry x="384" y="90" width="111" height="30" as="geometry" />
        </mxCell>
        <mxCell id="WYvio2zzwExaLBoRtyoF-56" value="" style="endArrow=classic;html=1;rounded=0;exitX=0.5;exitY=1;exitDx=0;exitDy=0;entryX=0.5;entryY=0;entryDx=0;entryDy=0;" edge="1" parent="1" source="WYvio2zzwExaLBoRtyoF-55" target="WYvio2zzwExaLBoRtyoF-54">
          <mxGeometry width="50" height="50" relative="1" as="geometry">
            <mxPoint x="435" y="210" as="sourcePoint" />
            <mxPoint x="510" y="160" as="targetPoint" />
          </mxGeometry>
        </mxCell>
      </root>
    </mxGraphModel>
  </diagram>
</mxfile>
